# Blender v2.78 (sub 0) OBJ File: ''
# www.blender.org
mtllib Pistol2.mtl
o Cube.001
v -3.372211 -0.451193 1.088584
v -3.372211 1.548807 1.088584
v -3.372211 -0.451193 -1.271495
v -3.372211 1.548807 -1.271495
v 5.988858 -0.451193 1.088584
v 5.988858 1.548807 1.088584
v 5.988858 -0.451193 -1.271495
v 5.988858 1.548807 -1.271495
vn -1.0000 0.0000 0.0000
vn 0.0000 0.0000 -1.0000
vn 1.0000 0.0000 0.0000
vn 0.0000 0.0000 1.0000
vn 0.0000 -1.0000 0.0000
vn 0.0000 1.0000 0.0000
usemtl None
s off
f 1//1 2//1 4//1 3//1
f 3//2 4//2 8//2 7//2
f 7//3 8//3 6//3 5//3
f 5//4 6//4 2//4 1//4
f 3//5 7//5 5//5 1//5
f 8//6 4//6 2//6 6//6
o Cube
v 4.475362 -1.000000 -1.000000
v 4.475362 -1.000000 1.000000
v -4.475362 -1.000000 1.000000
v -4.475360 -1.000000 -1.000000
v 3.505014 1.000000 -0.807270
v 3.505010 1.000000 0.807271
v -3.720647 1.000000 0.807271
v -3.720645 1.000000 -0.807271
v 0.000001 -1.000000 -1.000000
v 0.000000 -1.000000 1.000000
v -0.107816 1.000000 -0.807271
v -0.107819 1.000000 0.807271
v -1.959735 -1.227198 -1.000000
v -1.959737 -1.227198 1.000000
v -1.914231 1.000000 -0.807271
v -1.914233 1.000000 0.807271
v -1.562658 -3.512917 -1.000000
v -4.475360 -3.512917 -1.000000
v -1.562660 -3.512917 1.000000
v -4.475362 -3.512917 1.000000
v -1.562658 -4.368331 -1.000000
v -4.475360 -4.368331 -1.000000
v -1.562660 -4.368331 1.000000
v -4.475362 -4.368331 1.000000
vn -1.0000 0.0000 -0.0000
vn 0.0000 1.0000 0.0000
vn 0.8997 0.4365 0.0000
vn 0.0047 0.0899 0.9959
vn -0.9356 0.3531 -0.0000
vn 0.0047 0.0899 -0.9959
vn 0.0000 0.0959 -0.9954
vn -0.0000 0.0959 0.9954
vn 0.0000 -1.0000 -0.0000
vn -0.0055 0.0907 -0.9959
vn -0.0055 0.0907 0.9959
vn 0.1152 -0.9933 0.0000
vn 0.9852 0.1712 0.0000
vn -0.0000 -0.0000 1.0000
vn 0.0000 0.0000 -1.0000
vn 1.0000 0.0000 0.0000
usemtl Material
s off
f 11//7 12//7 26//7 28//7
f 23//8 16//8 15//8 24//8
f 9//9 13//9 14//9 10//9
f 22//10 24//10 15//10 11//10
f 11//11 15//11 16//11 12//11
f 23//12 21//12 12//12 16//12
f 13//13 9//13 17//13 19//13
f 10//14 14//14 20//14 18//14
f 13//8 19//8 20//8 14//8
f 9//15 10//15 18//15 17//15
f 19//16 17//16 21//16 23//16
f 18//17 20//17 24//17 22//17
f 19//8 23//8 24//8 20//8
f 17//18 18//18 22//18 21//18
f 28//7 26//7 30//7 32//7
f 21//19 22//19 27//19 25//19
f 22//20 11//20 28//20 27//20
f 12//21 21//21 25//21 26//21
f 29//15 31//15 32//15 30//15
f 26//21 25//21 29//21 30//21
f 25//22 27//22 31//22 29//22
f 27//20 28//20 32//20 31//20
